<svg xmlns="http://www.w3.org/2000/svg" width="256" height="256" viewBox="0 0 256 256" role="img" aria-label="WhatsApp">
  <defs><linearGradient id="bg" x1="0" y1="0" x2="1" y2="1"><stop offset="0%" stop-color="#084F8E"/><stop offset="55%" stop-color="#167EAA"/><stop offset="100%" stop-color="#2BB8BE"/></linearGradient></defs>
  <rect x="8" y="8" width="240" height="240" rx="48" fill="url(#bg)"/>
  <path d="M128 62c-38 0-69 29-69 65 0 14 5 27 14 38l-9 31 33-9c10 5 20 7 31 7 38 0 69-29 69-66 0-36-31-66-69-66z" fill="none" stroke="#fff" stroke-width="9" stroke-linejoin="round"/>
  <path d="M104 96c3-5 7-5 11-1l11 14c3 4 2 8-2 12l-7 7c8 16 20 28 37 36l7-8c4-4 8-5 12-2l14 10c5 4 5 8 2 13-6 10-16 15-27 13-36-7-68-39-76-74-2-9 4-16 18-20z" fill="#fff"/>
</svg>